<svg width="131" height="24" viewBox="0 0 131 24" fill="none" xmlns="http://www.w3.org/2000/svg">
<g clip-path="url(#clip0_227_179)">
<path d="M123.553 20.5746V10.9204H121V7.44441H123.553V4.47548C123.553 2.14247 125.061 0 128.535 0C129.942 0 130.982 0.134866 130.982 0.134866L130.9 3.38083C130.9 3.38083 129.839 3.3705 128.682 3.3705C127.429 3.3705 127.228 3.94793 127.228 4.90631V7.44441H131L130.836 10.9204H127.228V20.5746H123.553Z" fill="#AE7B3C"/>
</g>
<path d="M110.947 8.30545C110.937 7.54807 110.795 6.79822 110.528 6.08945C110.296 5.4916 109.943 4.94864 109.489 4.49528C109.036 4.04191 108.493 3.6881 107.895 3.45645C107.195 3.1938 106.456 3.05179 105.709 3.03645C104.747 2.99345 104.442 2.98145 102 2.98145C99.558 2.98145 99.245 2.98145 98.29 3.03645C97.5432 3.0519 96.8044 3.19391 96.105 3.45645C95.5071 3.68793 94.964 4.04169 94.5106 4.49508C94.0573 4.94847 93.7035 5.4915 93.472 6.08945C93.2088 6.78858 93.0671 7.52756 93.053 8.27445C93.01 9.23745 92.997 9.54245 92.997 11.9844C92.997 14.4264 92.997 14.7384 93.053 15.6944C93.068 16.4424 93.209 17.1804 93.472 17.8814C93.7039 18.4792 94.0579 19.022 94.5114 19.4752C94.965 19.9284 95.5081 20.282 96.106 20.5134C96.8034 20.7866 97.5424 20.9388 98.291 20.9634C99.254 21.0064 99.559 21.0194 102.001 21.0194C104.443 21.0194 104.756 21.0194 105.711 20.9634C106.458 20.9487 107.197 20.807 107.897 20.5444C108.495 20.3125 109.038 19.9586 109.491 19.5053C109.944 19.052 110.298 18.5091 110.53 17.9114C110.793 17.2114 110.934 16.4734 110.949 15.7244C110.992 14.7624 111.005 14.4574 111.005 12.0144C111.003 9.57245 111.003 9.26245 110.947 8.30545ZM101.994 16.6024C99.44 16.6024 97.371 14.5334 97.371 11.9794C97.371 9.42545 99.44 7.35645 101.994 7.35645C103.22 7.35645 104.396 7.84351 105.263 8.71049C106.13 9.57747 106.617 10.7533 106.617 11.9794C106.617 13.2055 106.13 14.3814 105.263 15.2484C104.396 16.1154 103.22 16.6024 101.994 16.6024ZM106.801 8.26344C106.659 8.26358 106.519 8.23578 106.388 8.18166C106.257 8.12753 106.139 8.04813 106.038 7.948C105.938 7.84787 105.859 7.72898 105.805 7.59813C105.751 7.46729 105.723 7.32705 105.723 7.18545C105.723 7.04395 105.751 6.90383 105.805 6.7731C105.859 6.64238 105.939 6.52359 106.039 6.42354C106.139 6.32348 106.257 6.24411 106.388 6.18997C106.519 6.13582 106.659 6.10795 106.801 6.10795C106.942 6.10795 107.082 6.13582 107.213 6.18997C107.344 6.24411 107.462 6.32348 107.562 6.42354C107.662 6.52359 107.742 6.64238 107.796 6.7731C107.85 6.90383 107.878 7.04395 107.878 7.18545C107.878 7.78145 107.396 8.26344 106.801 8.26344Z" fill="#AE7B3C"/>
<path d="M101.994 14.9816C103.653 14.9816 104.997 13.6371 104.997 11.9786C104.997 10.3201 103.653 8.97559 101.994 8.97559C100.335 8.97559 98.991 10.3201 98.991 11.9786C98.991 13.6371 100.335 14.9816 101.994 14.9816Z" fill="#AE7B3C"/>
<path opacity="0.5" d="M0.546 11.96C0.546 11.3533 0.648667 10.7607 0.854 10.182C1.06867 9.594 1.37667 9.062 1.778 8.586C2.18867 8.10067 2.688 7.718 3.276 7.438C3.864 7.14867 4.53133 7.004 5.278 7.004C6.16467 7.004 6.92533 7.20933 7.56 7.62C8.19467 8.02133 8.666 8.53933 8.974 9.174L7.98 9.818C7.784 9.398 7.532 9.06667 7.224 8.824C6.92533 8.572 6.59867 8.39467 6.244 8.292C5.89867 8.18933 5.558 8.138 5.222 8.138C4.67133 8.138 4.18133 8.25 3.752 8.474C3.332 8.698 2.97733 8.99667 2.688 9.37C2.39867 9.74333 2.17933 10.1633 2.03 10.63C1.89 11.0873 1.82 11.5493 1.82 12.016C1.82 12.5293 1.904 13.024 2.072 13.5C2.24933 13.976 2.492 14.396 2.8 14.76C3.108 15.124 3.472 15.4133 3.892 15.628C4.312 15.8427 4.76933 15.95 5.264 15.95C5.60933 15.95 5.964 15.8893 6.328 15.768C6.692 15.6467 7.03267 15.46 7.35 15.208C7.66733 14.9467 7.91933 14.6107 8.106 14.2L9.156 14.774C8.95067 15.2687 8.63333 15.6887 8.204 16.034C7.77467 16.3793 7.294 16.6407 6.762 16.818C6.23933 16.9953 5.72133 17.084 5.208 17.084C4.52667 17.084 3.90133 16.9393 3.332 16.65C2.76267 16.3513 2.268 15.9593 1.848 15.474C1.43733 14.9793 1.11533 14.4287 0.882 13.822C0.658 13.206 0.546 12.5853 0.546 11.96ZM13.729 17.14C13.001 17.14 12.357 16.9673 11.797 16.622C11.2463 16.2673 10.817 15.8053 10.509 15.236C10.201 14.6573 10.047 14.032 10.047 13.36C10.047 12.6787 10.201 12.0533 10.509 11.484C10.8263 10.9053 11.2603 10.4433 11.811 10.098C12.371 9.74333 13.0103 9.566 13.729 9.566C14.457 9.566 15.0963 9.74333 15.647 10.098C16.207 10.4433 16.641 10.9053 16.949 11.484C17.2663 12.0533 17.425 12.6787 17.425 13.36C17.425 14.032 17.2663 14.6573 16.949 15.236C16.641 15.8053 16.2116 16.2673 15.661 16.622C15.1103 16.9673 14.4663 17.14 13.729 17.14ZM11.307 13.374C11.307 13.878 11.4143 14.3353 11.629 14.746C11.853 15.1567 12.147 15.4833 12.511 15.726C12.875 15.9593 13.281 16.076 13.729 16.076C14.177 16.076 14.583 15.9547 14.947 15.712C15.3203 15.4693 15.6143 15.1427 15.829 14.732C16.053 14.312 16.165 13.85 16.165 13.346C16.165 12.842 16.053 12.3847 15.829 11.974C15.6143 11.5633 15.3203 11.2367 14.947 10.994C14.583 10.7513 14.177 10.63 13.729 10.63C13.281 10.63 12.875 10.756 12.511 11.008C12.147 11.2507 11.853 11.5773 11.629 11.988C11.4143 12.3987 11.307 12.8607 11.307 13.374ZM24.6718 18.722V17H18.9038V9.692H20.1358V15.922H23.5238V9.692H24.7558V15.922H25.7638V18.722H24.6718ZM27.1206 17V9.692H28.3946L31.1106 14.48L33.8406 9.692H35.0866V17H33.9106V11.47L31.5026 15.698H30.7186L28.2966 11.47V17H27.1206ZM40.3081 17.14C39.5801 17.14 38.9361 16.9673 38.3761 16.622C37.8161 16.2767 37.3774 15.8147 37.0601 15.236C36.7427 14.6573 36.5841 14.0273 36.5841 13.346C36.5841 12.6553 36.7427 12.0253 37.0601 11.456C37.3774 10.8867 37.8161 10.4293 38.3761 10.084C38.9454 9.73867 39.5941 9.566 40.3221 9.566C41.0594 9.566 41.6987 9.74333 42.2401 10.098C42.7907 10.4433 43.2154 10.9007 43.5141 11.47C43.8221 12.03 43.9761 12.6367 43.9761 13.29C43.9761 13.4953 43.9667 13.654 43.9481 13.766H37.8861C37.9234 14.242 38.0541 14.6667 38.2781 15.04C38.5114 15.404 38.8101 15.6933 39.1741 15.908C39.5381 16.1133 39.9301 16.216 40.3501 16.216C40.7981 16.216 41.2181 16.104 41.6101 15.88C42.0114 15.656 42.2867 15.362 42.4361 14.998L43.5001 15.292C43.2667 15.8333 42.8607 16.2767 42.2821 16.622C41.7034 16.9673 41.0454 17.14 40.3081 17.14ZM37.8441 12.912H42.8281C42.7907 12.436 42.6554 12.016 42.4221 11.652C42.1887 11.288 41.8901 11.0033 41.5261 10.798C41.1621 10.5927 40.7607 10.49 40.3221 10.49C39.8927 10.49 39.4961 10.5927 39.1321 10.798C38.7681 11.0033 38.4694 11.288 38.2361 11.652C38.0121 12.016 37.8814 12.436 37.8441 12.912ZM49.2796 17.14C48.6822 17.14 48.1502 16.9907 47.6836 16.692C47.2169 16.3933 46.8482 16.0153 46.5776 15.558V19.982H45.3456V9.692H46.4376V11.064C46.7269 10.616 47.1049 10.2567 47.5716 9.986C48.0382 9.706 48.5469 9.566 49.0976 9.566C49.6016 9.566 50.0636 9.66867 50.4836 9.874C50.9036 10.0793 51.2676 10.3593 51.5756 10.714C51.8836 11.0687 52.1216 11.4747 52.2896 11.932C52.4669 12.38 52.5556 12.8513 52.5556 13.346C52.5556 14.0367 52.4156 14.6713 52.1356 15.25C51.8649 15.8287 51.4822 16.2907 50.9876 16.636C50.4929 16.972 49.9236 17.14 49.2796 17.14ZM48.9016 16.076C49.3869 16.076 49.8069 15.9453 50.1616 15.684C50.5162 15.4227 50.7916 15.082 50.9876 14.662C51.1929 14.242 51.2956 13.8033 51.2956 13.346C51.2956 12.8513 51.1836 12.3987 50.9596 11.988C50.7449 11.5773 50.4462 11.2507 50.0636 11.008C49.6902 10.756 49.2656 10.63 48.7896 10.63C48.5002 10.63 48.1922 10.7047 47.8656 10.854C47.5482 11.0033 47.2682 11.204 47.0256 11.456C46.7922 11.6987 46.6429 11.9693 46.5776 12.268V14.354C46.7829 14.8393 47.0956 15.25 47.5156 15.586C47.9449 15.9127 48.4069 16.076 48.9016 16.076ZM57.3022 17.14C56.5742 17.14 55.9302 16.9673 55.3702 16.622C54.8102 16.2767 54.3716 15.8147 54.0542 15.236C53.7369 14.6573 53.5782 14.0273 53.5782 13.346C53.5782 12.6553 53.7369 12.0253 54.0542 11.456C54.3716 10.8867 54.8102 10.4293 55.3702 10.084C55.9396 9.73867 56.5882 9.566 57.3162 9.566C58.0536 9.566 58.6929 9.74333 59.2342 10.098C59.7849 10.4433 60.2096 10.9007 60.5082 11.47C60.8162 12.03 60.9702 12.6367 60.9702 13.29C60.9702 13.4953 60.9609 13.654 60.9422 13.766H54.8802C54.9176 14.242 55.0482 14.6667 55.2722 15.04C55.5056 15.404 55.8042 15.6933 56.1682 15.908C56.5322 16.1133 56.9242 16.216 57.3442 16.216C57.7922 16.216 58.2122 16.104 58.6042 15.88C59.0056 15.656 59.2809 15.362 59.4302 14.998L60.4942 15.292C60.2609 15.8333 59.8549 16.2767 59.2762 16.622C58.6976 16.9673 58.0396 17.14 57.3022 17.14ZM54.8382 12.912H59.8222C59.7849 12.436 59.6496 12.016 59.4162 11.652C59.1829 11.288 58.8842 11.0033 58.5202 10.798C58.1562 10.5927 57.7549 10.49 57.3162 10.49C56.8869 10.49 56.4902 10.5927 56.1262 10.798C55.7622 11.0033 55.4636 11.288 55.2302 11.652C55.0062 12.016 54.8756 12.436 54.8382 12.912ZM61.8357 17L64.5237 13.234L62.0737 9.692H63.4597L65.5597 12.73H66.3437V9.692H67.6037V12.73H68.4157L70.4737 9.692H71.8737L69.4237 13.234L72.1257 17H70.7117L68.4157 13.808H67.6037V17H66.3437V13.808H65.5597L63.2497 17H61.8357ZM73.6053 8.32V6.78H74.8373V8.32H73.6053ZM73.6053 17V9.692H74.8373V17H73.6053ZM76.7339 11.316V9.748H77.7559V11.316H76.7339ZM76.7339 17V15.432H77.7559V17H76.7339Z" fill="#282B22"/>
<defs>
<clipPath id="clip0_227_179">
<rect width="10" height="20.5746" fill="white" transform="translate(121)"/>
</clipPath>
</defs>
</svg>
